<svg width="1512" height="949" viewBox="0 0 1512 949" fill="none" xmlns="http://www.w3.org/2000/svg">
<path d="M1512 784.456V740.846C1480.5 752.6 1386 831.469 1323 839.328C1260 846.894 1197 839.549 1134 823.609C1071 807.962 1008 784.456 945 800.102C882 816.042 819 870.401 756 890.234C693 910.068 630 893.907 567 894.127C504 893.907 441 910.068 378 901.987C315 893.907 252 863.055 189 866.728C126 870.401 63 910.068 31.5 929.387L0 949V262H146C177.5 262 239.5 262 302.5 262C365.5 262 455.5 262 518.5 262C581.5 262 639 262 702 262C765 262 816 262 879 262C942 262 972.5 262 1035.5 262C1098.5 262 1111.5 262 1174.5 262C1237.5 262 1268.5 262 1331.5 262C1394.5 262 1398.5 262 1430 262H1512V784.456Z" fill="#75BBDB"/>
<path d="M1512 721.704L1480.5 737.939C1449 754.175 1386 786.646 1323 797.503C1260 807.955 1197 797.807 1134 775.788C1071 754.175 1008 721.704 945 743.317C882 765.337 819 840.426 756 867.823C693 895.22 630 872.896 567 873.201C504 872.896 441 895.22 378 884.058C315 872.896 252 830.278 189 835.352C126 840.426 63 895.22 31.5 921.907L0 949V0H146C177.5 0 239.5 0 302.5 0C365.5 0 455.5 0 518.5 0C581.5 0 639 0 702 0C765 0 816 0 879 0C942 0 972.5 0 1035.5 0C1098.5 0 1111.5 0 1174.5 0C1237.5 0 1268.5 0 1331.5 0C1394.5 0 1398.5 0 1430 0H1512V721.704Z" fill="url(#paint0_linear_2910_1353)"/>
<defs>
<linearGradient id="paint0_linear_2910_1353" x1="756" y1="0" x2="756" y2="949" gradientUnits="userSpaceOnUse">
<stop stop-color="#31106A"/>
<stop offset="1" stop-color="#4CA2CE"/>
</linearGradient>
</defs>
</svg>
