<svg width="1512" height="922" viewBox="0 0 1512 922" fill="none" xmlns="http://www.w3.org/2000/svg">
<path d="M1512 763.204L1480.5 774.547C1449 785.889 1386 808.574 1323 816.16C1260 823.461 1197 816.372 1134 800.989C1071 785.889 1008 763.204 945 778.304C882 793.687 819 846.147 756 865.287C693 884.428 630 868.832 567 869.044C504 868.832 441 884.428 378 876.63C315 868.832 252 839.057 189 842.602C126 846.147 63 884.428 31.5 903.072L0 922V259H146C177.5 259 239.5 259 302.5 259C365.5 259 455.5 259 518.5 259C581.5 259 639 259 702 259C765 259 816 259 879 259C942 259 972.5 259 1035.5 259C1098.5 259 1111.5 259 1174.5 259C1237.5 259 1268.5 259 1331.5 259C1394.5 259 1398.5 259 1430 259H1512V763.204Z" fill="#D1EEFF"/>
<path d="M1512 701.171L1480.5 716.944C1449 732.718 1386 764.265 1323 774.813C1260 784.967 1197 775.109 1134 753.716C1071 732.718 1008 701.171 945 722.169C882 743.562 819 816.515 756 843.132C693 869.75 630 848.062 567 848.357C504 848.062 441 869.75 378 858.906C315 848.062 252 806.656 189 811.585C126 816.515 63 869.75 31.5 895.678L0 922V0H146C177.5 0 239.5 0 302.5 0C365.5 0 455.5 0 518.5 0C581.5 0 639 0 702 0C765 0 816 0 879 0C942 0 972.5 0 1035.5 0C1098.5 0 1111.5 0 1174.5 0C1237.5 0 1268.5 0 1331.5 0C1394.5 0 1398.5 0 1430 0H1512V701.171Z" fill="url(#paint0_linear_2910_1352)"/>
<defs>
<linearGradient id="paint0_linear_2910_1352" x1="756" y1="0" x2="756" y2="875" gradientUnits="userSpaceOnUse">
<stop stop-color="#31106A"/>
<stop offset="0.226124" stop-color="#1B2C84"/>
<stop offset="1" stop-color="#1999DD"/>
</linearGradient>
</defs>
</svg>
